<svg width="25" height="25" viewBox="0 0 25 25" fill="none" xmlns="http://www.w3.org/2000/svg">
<path d="M7.0761 0H17.3242C21.2283 0 24.4003 3.17204 24.4003 7.0761V17.3242C24.4003 19.2009 23.6548 21.0008 22.3278 22.3278C21.0008 23.6548 19.2009 24.4003 17.3242 24.4003H7.0761C3.17204 24.4003 0 21.2283 0 17.3242V7.0761C0 5.1994 0.745515 3.39957 2.07254 2.07254C3.39957 0.745515 5.1994 0 7.0761 0ZM6.83209 2.44003C5.66725 2.44003 4.55011 2.90277 3.72644 3.72644C2.90277 4.55011 2.44003 5.66725 2.44003 6.83209V17.5682C2.44003 19.9961 4.40426 21.9603 6.83209 21.9603H17.5682C18.7331 21.9603 19.8502 21.4976 20.6739 20.6739C21.4976 19.8502 21.9603 18.7331 21.9603 17.5682V6.83209C21.9603 4.40426 19.9961 2.44003 17.5682 2.44003H6.83209ZM18.6052 4.27006C19.0097 4.27006 19.3976 4.43073 19.6836 4.71673C19.9696 5.00272 20.1303 5.39062 20.1303 5.79508C20.1303 6.19954 19.9696 6.58744 19.6836 6.87343C19.3976 7.15943 19.0097 7.3201 18.6052 7.3201C18.2008 7.3201 17.8129 7.15943 17.5269 6.87343C17.2409 6.58744 17.0802 6.19954 17.0802 5.79508C17.0802 5.39062 17.2409 5.00272 17.5269 4.71673C17.8129 4.43073 18.2008 4.27006 18.6052 4.27006ZM12.2002 6.10008C13.818 6.10008 15.3696 6.74277 16.5136 7.88676C17.6576 9.03074 18.3002 10.5823 18.3002 12.2002C18.3002 13.818 17.6576 15.3696 16.5136 16.5136C15.3696 17.6576 13.818 18.3003 12.2002 18.3003C10.5823 18.3003 9.03074 17.6576 7.88675 16.5136C6.74277 15.3696 6.10008 13.818 6.10008 12.2002C6.10008 10.5823 6.74277 9.03074 7.88675 7.88676C9.03074 6.74277 10.5823 6.10008 12.2002 6.10008ZM12.2002 8.54012C11.2295 8.54012 10.2985 8.92573 9.61212 9.61212C8.92573 10.2985 8.54011 11.2295 8.54011 12.2002C8.54011 13.1709 8.92573 14.1018 9.61212 14.7882C10.2985 15.4746 11.2295 15.8602 12.2002 15.8602C13.1709 15.8602 14.1018 15.4746 14.7882 14.7882C15.4746 14.1018 15.8602 13.1709 15.8602 12.2002C15.8602 11.2295 15.4746 10.2985 14.7882 9.61212C14.1018 8.92573 13.1709 8.54012 12.2002 8.54012Z" fill="#484848"/>
</svg>
