<svg width="26" height="25" viewBox="0 0 26 25" fill="none" xmlns="http://www.w3.org/2000/svg">
<path opacity="0.8" d="M13 11.0493C11.4685 11.0493 10.1567 10.5078 9.06471 9.42478C7.97271 8.34177 7.42733 7.04143 7.42857 5.52375C7.42981 4.00607 7.97519 2.70449 9.06471 1.61903C10.1542 0.533572 11.466 -0.00608769 13 5.17955e-05C14.534 0.00619128 15.8458 0.546465 16.9353 1.62088C18.0248 2.69528 18.5702 3.99686 18.5714 5.52559C18.5727 7.05432 18.0273 8.35466 16.9353 9.42662C15.8433 10.4986 14.5315 11.0382 13 11.0493ZM0 24.3677V21.336C0 20.5759 0.222857 19.865 0.668572 19.2031C1.11552 18.5401 1.716 18.0256 2.47 17.6597C4.22314 16.8259 5.97752 16.2009 7.73314 15.7847C9.48752 15.3672 11.2431 15.1584 13 15.1584C14.7569 15.1584 16.5131 15.3672 18.2687 15.7847C20.0243 16.2022 21.7775 16.8272 23.5281 17.6597C24.2834 18.0256 24.8839 18.5401 25.3296 19.2031C25.7765 19.865 26 20.5759 26 21.336V24.3677H0Z" fill="#0F0F0F"/>
</svg>
