<svg width="25" height="23" viewBox="0 0 25 23" fill="none" xmlns="http://www.w3.org/2000/svg">
<path opacity="0.8" d="M23.0556 22.4183L14.3056 14.5719C13.6111 15.07 12.8125 15.4644 11.9097 15.755C11.0069 16.0457 10.0463 16.191 9.02778 16.191C6.50463 16.191 4.36944 15.4072 2.62222 13.8395C0.875001 12.2719 0.000926661 10.3572 7.34862e-07 8.09548C-0.000925191 5.83373 0.873149 3.91904 2.62222 2.35143C4.3713 0.783809 6.50648 0 9.02778 0C11.5491 0 13.6847 0.783809 15.4347 2.35143C17.1847 3.91904 18.0583 5.83373 18.0556 8.09548C18.0556 9.00882 17.8935 9.87026 17.5694 10.6798C17.2454 11.4894 16.8056 12.2055 16.25 12.8282L25 20.6746L23.0556 22.4183ZM9.02778 13.7C10.7639 13.7 12.2398 13.1554 13.4556 12.066C14.6713 10.9766 15.2787 9.65313 15.2778 8.09548C15.2769 6.53783 14.6694 5.21474 13.4556 4.1262C12.2417 3.03767 10.7657 2.49258 9.02778 2.49092C7.28981 2.48926 5.81435 3.03435 4.60139 4.1262C3.38843 5.21806 2.78056 6.54115 2.77778 8.09548C2.775 9.64981 3.38287 10.9733 4.60139 12.066C5.81991 13.1587 7.29537 13.7034 9.02778 13.7Z" fill="#0F0F0F"/>
</svg>
