<svg width="22" height="25" viewBox="0 0 22 25" fill="none" xmlns="http://www.w3.org/2000/svg">
<path opacity="0.8" d="M17.6 19.4941C16.379 19.4941 15.4 20.5785 15.4 21.9309C15.4 22.5772 15.6318 23.197 16.0444 23.654C16.4569 24.1109 17.0165 24.3677 17.6 24.3677C18.1835 24.3677 18.7431 24.1109 19.1556 23.654C19.5682 23.197 19.8 22.5772 19.8 21.9309C19.8 21.2846 19.5682 20.6648 19.1556 20.2078C18.7431 19.7509 18.1835 19.4941 17.6 19.4941ZM0 0V2.43677H2.2L6.16 11.6843L4.664 14.6693C4.499 15.0105 4.4 15.4125 4.4 15.839C4.4 16.4853 4.63178 17.1051 5.04436 17.562C5.45694 18.019 6.01652 18.2757 6.6 18.2757H19.8V15.839H7.062C6.98907 15.839 6.91912 15.8069 6.86755 15.7498C6.81597 15.6926 6.787 15.6152 6.787 15.5344C6.787 15.4735 6.798 15.4247 6.82 15.3882L7.81 13.4022H16.005C16.83 13.4022 17.556 12.8905 17.93 12.1473L21.868 4.26434C21.945 4.0694 22 3.86227 22 3.65515C22 3.33201 21.8841 3.02211 21.6778 2.79362C21.4715 2.56513 21.1917 2.43677 20.9 2.43677H4.631L3.597 0M6.6 19.4941C5.379 19.4941 4.4 20.5785 4.4 21.9309C4.4 22.5772 4.63178 23.197 5.04436 23.654C5.45694 24.1109 6.01652 24.3677 6.6 24.3677C7.18348 24.3677 7.74305 24.1109 8.15563 23.654C8.56821 23.197 8.8 22.5772 8.8 21.9309C8.8 21.2846 8.56821 20.6648 8.15563 20.2078C7.74305 19.7509 7.18348 19.4941 6.6 19.4941Z" fill="#0F0F0F"/>
</svg>
