<svg width="31" height="22" viewBox="0 0 31 22" fill="none" xmlns="http://www.w3.org/2000/svg">
<path d="M12.1111 15.1389L19.9682 10.5972L12.1111 6.05556V15.1389ZM29.6117 3.28514C29.8085 3.99667 29.9447 4.95042 30.0356 6.16153C30.1415 7.37264 30.1869 8.41723 30.1869 9.32556L30.2778 10.5972C30.2778 13.9126 30.0356 16.35 29.6117 17.9093C29.2332 19.2718 28.3551 20.1499 26.9926 20.5283C26.2811 20.7251 24.9792 20.8614 22.9808 20.9522C21.0128 21.0582 19.2112 21.1036 17.546 21.1036L15.1389 21.1945C8.79569 21.1945 4.84444 20.9522 3.28514 20.5283C1.92264 20.1499 1.04458 19.2718 0.666111 17.9093C0.469306 17.1978 0.333056 16.244 0.242222 15.0329C0.13625 13.8218 0.0908332 12.7772 0.0908332 11.8689L0 10.5972C0 7.28181 0.242222 4.84445 0.666111 3.28514C1.04458 1.92264 1.92264 1.04458 3.28514 0.666111C3.99667 0.469306 5.29861 0.333055 7.29694 0.242222C9.265 0.13625 11.0665 0.0908333 12.7318 0.0908333L15.1389 0C21.4821 0 25.4333 0.242222 26.9926 0.666111C28.3551 1.04458 29.2332 1.92264 29.6117 3.28514Z" fill="#484848"/>
</svg>
